<svg width="24" height="24" viewBox="0 0 24 24" fill="none" xmlns="http://www.w3.org/2000/svg">
<g clip-path="url(#clip0_255_2317)">
<path d="M19.0714 3.28564H4.92857C4.41708 3.28564 3.92654 3.48883 3.56487 3.85051C3.20319 4.21219 3 4.70273 3 5.21422L3 19.3571C3 19.8686 3.20319 20.3591 3.56487 20.7208C3.92654 21.0825 4.41708 21.2856 4.92857 21.2856H10.4431V15.166H7.91183V12.2856H10.4431V10.0903C10.4431 7.59319 11.9297 6.21386 14.2066 6.21386C15.2971 6.21386 16.4373 6.40832 16.4373 6.40832V8.85922H15.1809C13.943 8.85922 13.5569 9.62743 13.5569 10.4153V12.2856H16.3204L15.8784 15.166H13.5569V21.2856H19.0714C19.5829 21.2856 20.0735 21.0825 20.4351 20.7208C20.7968 20.3591 21 19.8686 21 19.3571V5.21422C21 4.70273 20.7968 4.21219 20.4351 3.85051C20.0735 3.48883 19.5829 3.28564 19.0714 3.28564V3.28564Z" fill="#242424"/>
</g>
<defs>
<clipPath id="clip0_255_2317">
<rect width="18" height="20.5714" fill="white" transform="translate(3 2)"/>
</clipPath>
</defs>
</svg>
