<svg width="24" height="24" viewBox="0 0 24 24" fill="none" xmlns="http://www.w3.org/2000/svg">
<g clip-path="url(#clip0_255_2318)">
<path d="M12 3C9.55369 3 9.24881 3.01181 8.29144 3.05231C7.33013 3.09956 6.67988 3.24863 6.10613 3.47137C5.50564 3.69807 4.96181 4.05301 4.51256 4.51144C4.05286 4.95964 3.69772 5.50376 3.4725 6.105C3.24975 6.67875 3.10069 7.329 3.05344 8.29031C3.01013 9.24825 3.00113 9.55256 3.00113 11.9989C3.00113 14.4452 3.01294 14.7501 3.05344 15.7074C3.10069 16.6659 3.24975 17.319 3.4725 17.8927C3.6992 18.4932 4.05413 19.0371 4.51256 19.4863C4.96076 19.946 5.50489 20.3012 6.10613 20.5264C6.67988 20.7463 7.33294 20.8982 8.29144 20.9454C9.24938 20.9887 9.55369 20.9978 12 20.9978C14.4463 20.9978 14.7512 20.9859 15.7086 20.9454C16.6671 20.8982 17.3201 20.7458 17.8939 20.5264C18.4944 20.2997 19.0382 19.9447 19.4874 19.4863C19.9477 19.0386 20.303 18.4943 20.5275 17.8927C20.7474 17.319 20.8993 16.6659 20.9466 15.7074C20.9899 14.7495 20.9989 14.4452 20.9989 11.9989C20.9989 9.55256 20.9871 9.24769 20.9466 8.29031C20.8993 7.33181 20.7469 6.67538 20.5275 6.105C20.3008 5.50451 19.9459 4.96069 19.4874 4.51144C19.0397 4.05114 18.4955 3.69591 17.8939 3.47137C17.3201 3.24863 16.6671 3.09956 15.7086 3.05231C14.7506 3.009 14.4463 3 12 3ZM12 4.62C14.4024 4.62 14.6893 4.63181 15.6388 4.67231C16.5146 4.71338 16.9916 4.85963 17.3083 4.98338C17.6998 5.12789 18.0542 5.35792 18.3456 5.65669C18.6438 5.94684 18.873 6.30038 19.0161 6.69112C19.1398 7.00781 19.2861 7.48481 19.3271 8.36062C19.3676 9.31012 19.3794 9.59756 19.3794 11.9994C19.3794 14.4013 19.3676 14.6888 19.3238 15.6383C19.2765 16.5141 19.1303 16.9911 19.0071 17.3078C18.8366 17.7302 18.6465 18.0255 18.3326 18.345C18.0403 18.6419 17.6861 18.8708 17.2954 19.0155C16.9826 19.1393 16.4989 19.2855 15.6197 19.3266C14.6651 19.3671 14.3839 19.3789 11.9753 19.3789C9.56663 19.3789 9.28594 19.3671 8.33025 19.3232C7.45444 19.2759 6.97125 19.1297 6.65456 19.0065C6.22706 18.8361 5.934 18.6459 5.62013 18.3321C5.30344 18.0154 5.10206 17.7139 4.94681 17.2948C4.82081 16.9821 4.67681 16.4983 4.63013 15.6191C4.59806 14.6758 4.58288 14.3833 4.58288 11.9859C4.58288 9.58969 4.59806 9.29663 4.63013 8.3415C4.67681 7.46231 4.82081 6.97969 4.94681 6.66581C5.10206 6.23775 5.304 5.94525 5.62013 5.62856C5.93344 5.31525 6.22706 5.11275 6.65456 4.95412C6.97125 4.83094 7.44263 4.68469 8.32181 4.64081C9.27638 4.6065 9.55763 4.59413 11.9629 4.59413L12 4.62ZM12 7.38019C11.3933 7.37997 10.7924 7.49931 10.2318 7.7314C9.67121 7.96349 9.16184 8.30377 8.73281 8.7328C8.30377 9.16184 7.96349 9.67121 7.7314 10.2318C7.49931 10.7924 7.37997 11.3933 7.38019 12C7.37997 12.6067 7.49931 13.2076 7.7314 13.7682C7.96349 14.3288 8.30377 14.8382 8.73281 15.2672C9.16184 15.6962 9.67121 16.0365 10.2318 16.2686C10.7924 16.5007 11.3933 16.62 12 16.6198C12.6067 16.62 13.2076 16.5007 13.7682 16.2686C14.3288 16.0365 14.8382 15.6962 15.2672 15.2672C15.6962 14.8382 16.0365 14.3288 16.2686 13.7682C16.5007 13.2076 16.62 12.6067 16.6198 12C16.62 11.3933 16.5007 10.7924 16.2686 10.2318C16.0365 9.67121 15.6962 9.16184 15.2672 8.7328C14.8382 8.30377 14.3288 7.96349 13.7682 7.7314C13.2076 7.49931 12.6067 7.37997 12 7.38019V7.38019ZM12 14.9998C10.3418 14.9998 9.00019 13.6582 9.00019 12C9.00019 10.3418 10.3418 9.00019 12 9.00019C13.6583 9.00019 14.9998 10.3418 14.9998 12C14.9998 13.6582 13.6583 14.9998 12 14.9998ZM17.886 7.19569C17.8857 7.48237 17.7716 7.75722 17.5688 7.95983C17.366 8.16244 17.091 8.27625 16.8043 8.27625C16.6626 8.27625 16.5222 8.24833 16.3912 8.19408C16.2603 8.13984 16.1413 8.06033 16.041 7.96009C15.9408 7.85986 15.8613 7.74086 15.807 7.6099C15.7528 7.47893 15.7249 7.33857 15.7249 7.19681C15.7249 7.05506 15.7528 6.91469 15.807 6.78373C15.8613 6.65277 15.9408 6.53377 16.041 6.43353C16.1413 6.3333 16.2603 6.25379 16.3912 6.19954C16.5222 6.1453 16.6626 6.11737 16.8043 6.11737C17.3989 6.11737 17.886 6.60113 17.886 7.19569V7.19569Z" fill="#242424"/>
</g>
<defs>
<clipPath id="clip0_255_2318">
<rect width="18" height="18" fill="white" transform="translate(3 3)"/>
</clipPath>
</defs>
</svg>
