<svg width="24" height="25" viewBox="0 0 24 25" fill="none" xmlns="http://www.w3.org/2000/svg">
<path d="M17 2.94824H7C4.23858 2.94824 2 5.18682 2 7.94824V17.9482C2 20.7097 4.23858 22.9482 7 22.9482H17C19.7614 22.9482 22 20.7097 22 17.9482V7.94824C22 5.18682 19.7614 2.94824 17 2.94824Z" stroke="black" stroke-width="2" stroke-linecap="round" stroke-linejoin="round"/>
<path d="M16 12.3185C16.1234 13.1508 15.9812 14.0008 15.5937 14.7476C15.2062 15.4944 14.5931 16.1 13.8416 16.4782C13.0901 16.8565 12.2384 16.9881 11.4077 16.8545C10.5771 16.7208 9.80971 16.3286 9.21479 15.7337C8.61987 15.1388 8.22768 14.3714 8.09402 13.5408C7.96035 12.7101 8.09202 11.8584 8.47028 11.1069C8.84854 10.3554 9.45414 9.74228 10.2009 9.35479C10.9477 8.96729 11.7977 8.82513 12.63 8.94854C13.4789 9.07443 14.2648 9.47001 14.8716 10.0769C15.4785 10.6837 15.8741 11.4696 16 12.3185Z" stroke="black" stroke-width="2" stroke-linecap="round" stroke-linejoin="round"/>
<path d="M17.5 7.44824H17.51" stroke="black" stroke-width="2" stroke-linecap="round" stroke-linejoin="round"/>
</svg>
