<svg width="20" height="16" viewBox="0 0 20 16" fill="none" xmlns="http://www.w3.org/2000/svg">
<path d="M2 15.5C1.58333 15.5 1.22933 15.354 0.938 15.062C0.646 14.7707 0.5 14.4167 0.5 14V10.4C1.06667 10.3 1.54167 10.0207 1.925 9.562C2.30833 9.104 2.5 8.58333 2.5 8C2.5 7.41667 2.30833 6.896 1.925 6.438C1.54167 5.97933 1.06667 5.7 0.5 5.6V2C0.5 1.58333 0.646 1.22933 0.938 0.938C1.22933 0.646 1.58333 0.5 2 0.5H18C18.4167 0.5 18.7707 0.646 19.062 0.938C19.354 1.22933 19.5 1.58333 19.5 2V5.6C18.9333 5.7 18.4583 5.97933 18.075 6.438C17.6917 6.896 17.5 7.41667 17.5 8C17.5 8.58333 17.6917 9.104 18.075 9.562C18.4583 10.0207 18.9333 10.3 19.5 10.4V14C19.5 14.4167 19.354 14.7707 19.062 15.062C18.7707 15.354 18.4167 15.5 18 15.5H2ZM2 14H18V11.45C17.3667 11.1 16.875 10.6123 16.525 9.987C16.175 9.36233 16 8.7 16 8C16 7.3 16.175 6.63733 16.525 6.012C16.875 5.38733 17.3667 4.9 18 4.55V2H2V4.55C2.63333 4.9 3.125 5.38733 3.475 6.012C3.825 6.63733 4 7.3 4 8C4 8.7 3.825 9.36233 3.475 9.987C3.125 10.6123 2.63333 11.1 2 11.45V14ZM10 9.65L11.225 10.6C11.4083 10.7333 11.596 10.7333 11.788 10.6C11.9793 10.4667 12.0417 10.2917 11.975 10.075L11.475 8.525L12.9 7.425C13.0667 7.29167 13.1167 7.12067 13.05 6.912C12.9833 6.704 12.8333 6.6 12.6 6.6H10.975L10.425 4.975C10.3583 4.75833 10.2167 4.65 10 4.65C9.78333 4.65 9.64167 4.75833 9.575 4.975L9.025 6.6H7.375C7.15833 6.6 7.01667 6.704 6.95 6.912C6.88333 7.12067 6.93333 7.29167 7.1 7.425L8.475 8.525L7.975 10.125C7.90833 10.3417 7.96667 10.5167 8.15 10.65C8.33333 10.7833 8.51667 10.775 8.7 10.625L10 9.65Z" fill="#1F1F1F"/>
</svg>
