<svg width="16" height="20" viewBox="0 0 16 20" fill="none" xmlns="http://www.w3.org/2000/svg">
<path d="M8 9.75C8.48333 9.75 8.896 9.57933 9.238 9.238C9.57933 8.896 9.75 8.48333 9.75 8C9.75 7.51667 9.57933 7.104 9.238 6.762C8.896 6.42067 8.48333 6.25 8 6.25C7.51667 6.25 7.104 6.42067 6.762 6.762C6.42067 7.104 6.25 7.51667 6.25 8C6.25 8.48333 6.42067 8.896 6.762 9.238C7.104 9.57933 7.51667 9.75 8 9.75ZM8 17.8C10.0667 15.9667 11.625 14.2123 12.675 12.537C13.725 10.8623 14.25 9.41667 14.25 8.2C14.25 6.3 13.646 4.75 12.438 3.55C11.2293 2.35 9.75 1.75 8 1.75C6.25 1.75 4.77067 2.35 3.562 3.55C2.354 4.75 1.75 6.3 1.75 8.2C1.75 9.41667 2.275 10.8623 3.325 12.537C4.375 14.2123 5.93333 15.9667 8 17.8ZM8 19.45C7.88333 19.45 7.76667 19.4333 7.65 19.4C7.53333 19.3667 7.425 19.3083 7.325 19.225C4.95833 17.075 3.18767 15.0833 2.013 13.25C0.837667 11.4167 0.25 9.73333 0.25 8.2C0.25 5.78333 1.02933 3.854 2.588 2.412C4.146 0.970667 5.95 0.25 8 0.25C10.05 0.25 11.8543 0.970667 13.413 2.412C14.971 3.854 15.75 5.78333 15.75 8.2C15.75 9.73333 15.1627 11.4167 13.988 13.25C12.8127 15.0833 11.0417 17.075 8.675 19.225C8.575 19.3083 8.46667 19.3667 8.35 19.4C8.23333 19.4333 8.11667 19.45 8 19.45Z" fill="#1F1F1F"/>
</svg>
