<svg width="24" height="24" viewBox="0 0 24 24" fill="none" xmlns="http://www.w3.org/2000/svg">
<mask id="mask0_255_2320" style="mask-type:alpha" maskUnits="userSpaceOnUse" x="0" y="0" width="24" height="24">
<rect width="24" height="24" fill="#D9D9D9"/>
</mask>
<g mask="url(#mask0_255_2320)">
<path d="M19.425 20.45C17.4917 20.45 15.571 19.9873 13.663 19.062C11.7543 18.1373 10.05 16.925 8.55 15.425C7.05 13.925 5.83767 12.225 4.913 10.325C3.98767 8.425 3.525 6.5 3.525 4.55C3.525 4.25 3.625 4 3.825 3.8C4.025 3.6 4.275 3.5 4.575 3.5H7.825C8.09167 3.5 8.32067 3.579 8.512 3.737C8.704 3.89567 8.825 4.1 8.875 4.35L9.45 7.3C9.48333 7.55 9.475 7.775 9.425 7.975C9.375 8.175 9.26667 8.35 9.1 8.5L6.8 10.75C7.6 12.0833 8.54567 13.2917 9.637 14.375C10.729 15.4583 11.9667 16.4 13.35 17.2L15.575 14.95C15.7417 14.7833 15.9377 14.6667 16.163 14.6C16.3877 14.5333 16.6167 14.5167 16.85 14.55L19.625 15.125C19.875 15.175 20.0793 15.2917 20.238 15.475C20.396 15.6583 20.475 15.8833 20.475 16.15V19.4C20.475 19.7 20.375 19.95 20.175 20.15C19.975 20.35 19.725 20.45 19.425 20.45ZM6.1 9.325L7.875 7.625C7.90833 7.59167 7.92933 7.554 7.938 7.512C7.946 7.47067 7.94167 7.43333 7.925 7.4L7.5 5.15C7.48333 5.1 7.45833 5.06233 7.425 5.037C7.39167 5.01233 7.35 5 7.3 5H5.175C5.125 5 5.08733 5.01233 5.062 5.037C5.03733 5.06233 5.025 5.09167 5.025 5.125C5.075 5.80833 5.18767 6.504 5.363 7.212C5.53767 7.92067 5.78333 8.625 6.1 9.325ZM18.85 18.9C18.8833 18.9 18.9127 18.8873 18.938 18.862C18.9627 18.8373 18.975 18.8083 18.975 18.775V16.675C18.975 16.625 18.9627 16.5833 18.938 16.55C18.9127 16.5167 18.875 16.4917 18.825 16.475L16.725 16.05C16.6917 16.0333 16.6583 16.0333 16.625 16.05L16.525 16.1L14.75 17.9C15.4167 18.2167 16.1083 18.4583 16.825 18.625C17.5417 18.7917 18.2167 18.8833 18.85 18.9Z" fill="#242424"/>
</g>
</svg>
