<svg width="24" height="24" viewBox="0 0 24 24" fill="none" xmlns="http://www.w3.org/2000/svg">
<path d="M17.4907 7.1715C17.3768 7.11258 17.266 7.048 17.1585 6.978C16.8462 6.77154 16.5599 6.5283 16.3057 6.2535C15.669 5.52525 15.4312 4.7865 15.3442 4.26975H15.3472C15.2745 3.84 15.3045 3.5625 15.3097 3.5625H12.411V14.7697C12.411 14.9197 12.411 15.069 12.405 15.216C12.405 15.234 12.4027 15.2505 12.402 15.2707C12.402 15.2782 12.402 15.2872 12.3997 15.2955V15.3022C12.3693 15.7043 12.2405 16.0926 12.0247 16.4332C11.8089 16.7737 11.5128 17.056 11.1623 17.2552C10.7966 17.4633 10.383 17.5724 9.96225 17.5717C8.61225 17.5717 7.51725 16.4707 7.51725 15.111C7.51725 13.7505 8.61225 12.6495 9.96225 12.6495C10.218 12.6495 10.4722 12.69 10.7152 12.7695L10.719 9.8175C9.98101 9.72229 9.2313 9.7811 8.51718 9.99022C7.80306 10.1993 7.14005 10.5542 6.57 11.0325C6.07039 11.4664 5.65034 11.9842 5.32875 12.5625C5.2065 12.7732 4.7445 13.6215 4.689 14.997C4.65375 15.777 4.8885 16.587 5.00025 16.9207V16.9282C5.07 17.1247 5.343 17.7967 5.787 18.363C6.14505 18.8175 6.56809 19.2168 7.0425 19.548V19.5405L7.04925 19.548C8.45175 20.5005 10.008 20.4382 10.008 20.4382C10.2773 20.427 11.1795 20.4382 12.204 19.953C13.3402 19.4145 13.9867 18.6127 13.9867 18.6127C14.4001 18.1336 14.7288 17.5875 14.9587 16.998C15.2212 16.308 15.3082 15.4815 15.3082 15.1515V9.20475C15.3435 9.22575 15.8122 9.5355 15.8122 9.5355C15.8122 9.5355 16.4873 9.96825 17.5395 10.2495C18.294 10.4497 19.3118 10.4925 19.3118 10.4925V7.61475C18.9555 7.65375 18.2318 7.54125 17.49 7.17225L17.4907 7.1715Z" fill="#242424"/>
</svg>
