<svg width="24" height="25" viewBox="0 0 24 25" fill="none" xmlns="http://www.w3.org/2000/svg">
<path d="M22.5401 7.36824C22.4213 6.89365 22.1794 6.45881 21.8387 6.10765C21.4981 5.75648 21.0708 5.50143 20.6001 5.36824C18.8801 4.94824 12.0001 4.94824 12.0001 4.94824C12.0001 4.94824 5.12008 4.94824 3.40008 5.40824C2.92933 5.54143 2.50206 5.79648 2.16143 6.14765C1.8208 6.49881 1.57887 6.93365 1.46008 7.40824C1.1453 9.1538 0.991319 10.9246 1.00008 12.6982C0.988863 14.4853 1.14285 16.2695 1.46008 18.0282C1.59104 18.4881 1.83839 18.9064 2.17823 19.2427C2.51806 19.5791 2.9389 19.8221 3.40008 19.9482C5.12008 20.4082 12.0001 20.4082 12.0001 20.4082C12.0001 20.4082 18.8801 20.4082 20.6001 19.9482C21.0708 19.8151 21.4981 19.56 21.8387 19.2088C22.1794 18.8577 22.4213 18.4228 22.5401 17.9482C22.8524 16.2158 23.0064 14.4586 23.0001 12.6982C23.0113 10.9112 22.8573 9.12694 22.5401 7.36824V7.36824Z" stroke="black" stroke-width="2" stroke-linecap="round" stroke-linejoin="round"/>
<path d="M9.75 15.9687L15.5 12.6987L9.75 9.42871V15.9687Z" stroke="black" stroke-width="2" stroke-linecap="round" stroke-linejoin="round"/>
</svg>
