<svg width="1915" height="589" viewBox="0 0 1915 589" fill="none" xmlns="http://www.w3.org/2000/svg">
<path d="M113.497 416.554L107.939 420.577C109.027 422.08 110.678 423.079 112.514 423.344C114.351 423.61 116.217 423.121 117.686 421.988L113.497 416.554ZM77.5756 366.93L73.3588 361.517C70.4436 363.788 69.8506 367.96 72.0175 370.953L77.5756 366.93ZM422.089 98.5392L427.389 94.1809C425.026 91.3085 420.806 90.8409 417.872 93.1264L422.089 98.5392ZM458.635 142.978L462.572 148.598C464.137 147.501 465.175 145.801 465.433 143.906C465.692 142.012 465.149 140.096 463.935 138.619L458.635 142.978ZM449.596 218.945L444.159 223.131L449.596 218.945ZM520.77 224.973L526.198 220.775C524.142 218.117 520.464 217.339 517.508 218.937L520.77 224.973ZM557.396 272.327L561.61 277.741C564.594 275.418 565.137 271.12 562.823 268.129L557.396 272.327ZM210.809 542.128L205.473 546.441C207.824 549.35 212.072 549.839 215.024 547.542L210.809 542.128ZM172.384 494.599L167.767 489.523C165.078 491.969 164.763 496.087 167.048 498.913L172.384 494.599ZM180.976 426.945L186.352 422.681L180.976 426.945ZM141.29 275.018C139.275 278.227 140.242 282.462 143.452 284.478C146.661 286.493 150.896 285.526 152.912 282.317L141.29 275.018ZM293.331 45.8406L296.711 39.8693L291.006 36.6404L287.52 42.1912L293.331 45.8406ZM347.222 76.3455L353.285 79.5573L356.408 73.661L350.602 70.3742L347.222 76.3455ZM340.845 132.556C342.396 136.014 346.457 137.558 349.914 136.006C353.372 134.454 354.916 130.394 353.364 126.937L340.845 132.556ZM339.24 100.457L346.094 100.774L339.24 100.457ZM249.789 161.745C246.612 159.678 242.362 160.579 240.296 163.755C238.23 166.932 239.13 171.182 242.307 173.249L249.789 161.745ZM263.662 187.139C266.839 189.205 271.089 188.305 273.155 185.128C275.221 181.951 274.321 177.701 271.145 175.635L263.662 187.139ZM339.486 194.229C337.172 191.228 332.863 190.672 329.862 192.986C326.862 195.301 326.306 199.609 328.62 202.61L339.486 194.229ZM343.62 222.058C345.935 225.058 350.244 225.615 353.244 223.3C356.245 220.986 356.801 216.677 354.487 213.676L343.62 222.058ZM374.397 261.499C376.775 264.449 381.095 264.913 384.045 262.535C386.996 260.156 387.459 255.837 385.081 252.886L374.397 261.499ZM368.711 232.579C366.333 229.628 362.013 229.164 359.063 231.543C356.113 233.921 355.649 238.241 358.027 241.191L368.711 232.579ZM403.546 298.955C405.982 301.857 410.311 302.235 413.213 299.798C416.115 297.361 416.492 293.033 414.055 290.131L403.546 298.955ZM397.94 270.938C395.503 268.036 391.175 267.658 388.273 270.095C385.371 272.532 384.994 276.86 387.43 279.762L397.94 270.938ZM433.254 336.283C435.749 339.136 440.084 339.426 442.936 336.931C445.789 334.437 446.079 330.102 443.585 327.249L433.254 336.283ZM426.912 308.184C424.417 305.331 420.082 305.041 417.23 307.535C414.377 310.03 414.087 314.365 416.581 317.217L426.912 308.184ZM119.055 412.53L83.1338 362.906L72.0175 370.953L107.939 420.577L119.055 412.53ZM81.7925 372.343L426.306 103.952L417.872 93.1264L73.3588 361.517L81.7925 372.343ZM416.789 102.898L453.335 147.336L463.935 138.619L427.389 94.1809L416.789 102.898ZM458.635 142.978C454.698 137.358 454.695 137.36 454.692 137.362C454.691 137.363 454.687 137.366 454.685 137.367C454.679 137.371 454.674 137.375 454.667 137.38C454.654 137.389 454.638 137.401 454.619 137.414C454.582 137.44 454.535 137.474 454.478 137.516C454.363 137.599 454.208 137.713 454.017 137.857C453.635 138.145 453.108 138.555 452.465 139.082C451.183 140.135 449.43 141.666 447.461 143.647C443.546 147.583 438.638 153.427 434.909 160.947C431.159 168.509 428.569 177.843 429.48 188.569C430.393 199.315 434.777 210.942 444.159 223.131L455.034 214.76C447.003 204.327 443.811 195.147 443.154 187.408C442.495 179.648 444.341 172.818 447.204 167.043C450.088 161.227 453.969 156.563 457.19 153.324C458.789 151.717 460.191 150.495 461.171 149.69C461.66 149.289 462.041 148.994 462.285 148.81C462.406 148.719 462.494 148.654 462.543 148.619C462.567 148.601 462.582 148.59 462.587 148.587C462.59 148.585 462.59 148.585 462.587 148.587C462.586 148.588 462.584 148.589 462.581 148.591C462.58 148.592 462.578 148.594 462.577 148.594C462.574 148.596 462.572 148.598 458.635 142.978ZM444.159 223.131C458.497 241.759 479.497 243.116 495.364 240.515C503.374 239.202 510.491 236.84 515.573 234.832C518.126 233.823 520.198 232.89 521.65 232.201C522.376 231.855 522.949 231.57 523.352 231.365C523.553 231.262 523.712 231.18 523.826 231.12C523.883 231.09 523.929 231.065 523.964 231.047C523.981 231.038 523.996 231.03 524.007 231.024C524.013 231.02 524.018 231.018 524.022 231.015C524.024 231.014 524.027 231.013 524.028 231.012C524.031 231.011 524.033 231.01 520.77 224.973C517.508 218.937 517.51 218.936 517.511 218.935C517.512 218.935 517.513 218.934 517.514 218.934C517.516 218.933 517.516 218.932 517.516 218.932C517.517 218.932 517.514 218.934 517.509 218.937C517.498 218.942 517.476 218.954 517.444 218.971C517.378 219.005 517.271 219.061 517.122 219.137C516.824 219.289 516.364 219.518 515.759 219.806C514.546 220.382 512.758 221.188 510.529 222.069C506.046 223.841 499.904 225.864 493.144 226.973C479.471 229.214 464.884 227.557 455.034 214.76L444.159 223.131ZM515.343 229.171L551.968 276.524L562.823 268.129L526.198 220.775L515.343 229.171ZM553.181 266.912L206.594 536.713L215.024 547.542L561.61 277.741L553.181 266.912ZM216.145 537.814L177.72 490.285L167.048 498.913L205.473 546.441L216.145 537.814ZM172.384 494.599C177.001 499.675 177.003 499.673 177.006 499.67C177.007 499.669 177.01 499.667 177.012 499.665C177.016 499.661 177.02 499.657 177.026 499.652C177.036 499.643 177.049 499.631 177.063 499.617C177.093 499.59 177.131 499.555 177.177 499.511C177.27 499.425 177.396 499.306 177.551 499.155C177.862 498.855 178.292 498.43 178.818 497.886C179.867 496.801 181.302 495.236 182.92 493.254C186.135 489.313 190.172 483.596 193.287 476.597C199.623 462.362 202.132 442.577 186.352 422.681L175.6 431.209C187.389 446.072 185.602 460.114 180.749 471.017C178.271 476.586 174.99 481.265 172.287 484.578C170.945 486.223 169.77 487.5 168.95 488.349C168.54 488.773 168.221 489.088 168.015 489.287C167.912 489.386 167.838 489.456 167.796 489.496C167.775 489.516 167.761 489.528 167.756 489.533C167.754 489.535 167.753 489.536 167.755 489.534C167.756 489.533 167.757 489.532 167.759 489.53C167.76 489.529 167.762 489.528 167.762 489.527C167.764 489.525 167.767 489.523 172.384 494.599ZM186.352 422.681C177.978 412.124 168.905 405.798 159.792 402.524C150.705 399.26 142 399.181 134.552 400.463C127.142 401.739 120.9 404.372 116.543 406.649C114.351 407.795 112.598 408.87 111.371 409.676C110.756 410.079 110.27 410.417 109.923 410.666C109.75 410.79 109.611 410.892 109.508 410.968C109.456 411.007 109.414 411.039 109.38 411.064C109.364 411.077 109.349 411.088 109.337 411.097C109.331 411.101 109.325 411.106 109.32 411.109C109.318 411.111 109.315 411.114 109.314 411.115C109.31 411.117 109.307 411.12 113.497 416.554C117.686 421.988 117.684 421.99 117.681 421.992C117.681 421.992 117.678 421.994 117.677 421.995C117.674 421.997 117.672 421.999 117.67 422C117.667 422.003 117.666 422.003 117.667 422.003C117.669 422.001 117.68 421.993 117.699 421.979C117.737 421.95 117.808 421.898 117.911 421.824C118.118 421.676 118.452 421.443 118.902 421.147C119.805 420.555 121.164 419.718 122.898 418.812C126.393 416.986 131.261 414.955 136.881 413.987C142.463 413.026 148.707 413.124 155.153 415.439C161.572 417.745 168.614 422.401 175.6 431.209L186.352 422.681ZM152.912 282.317L299.141 49.49L287.52 42.1912L141.29 275.018L152.912 282.317ZM289.951 51.8119L343.842 82.3168L350.602 70.3742L296.711 39.8693L289.951 51.8119ZM347.222 76.3455C341.158 73.1338 341.158 73.1346 341.157 73.1355C341.157 73.1359 341.157 73.1368 341.156 73.1376C341.156 73.139 341.155 73.1407 341.154 73.1426C341.152 73.1465 341.149 73.1512 341.146 73.1567C341.14 73.1679 341.133 73.1824 341.123 73.2004C341.104 73.2363 341.079 73.2857 341.046 73.3481C340.982 73.4728 340.891 73.6495 340.777 73.8736C340.55 74.3216 340.232 74.9605 339.852 75.7538C339.093 77.3358 338.077 79.5546 337.042 82.1119C335.058 87.0144 332.672 93.9534 332.386 100.14L346.094 100.774C346.266 97.0529 347.871 91.9361 349.763 87.2597C350.667 85.0277 351.56 83.0763 352.227 81.6855C352.559 80.9924 352.832 80.4443 353.018 80.0768C353.111 79.8931 353.182 79.755 353.228 79.6669C353.251 79.6228 353.267 79.5912 353.277 79.5728C353.282 79.5636 353.285 79.5576 353.287 79.555C353.287 79.5537 353.287 79.5532 353.287 79.5536C353.287 79.5538 353.287 79.5542 353.287 79.5548C353.286 79.5551 353.286 79.5557 353.286 79.5559C353.286 79.5566 353.285 79.5573 347.222 76.3455ZM332.386 100.14C332.073 106.895 334.46 115.315 336.488 121.304C337.556 124.457 338.636 127.248 339.448 129.25C339.855 130.254 340.198 131.066 340.441 131.633C340.563 131.917 340.661 132.14 340.729 132.296C340.764 132.374 340.791 132.435 340.81 132.479C340.82 132.501 340.828 132.518 340.833 132.531C340.836 132.538 340.839 132.543 340.84 132.547C340.841 132.549 340.842 132.551 340.843 132.553C340.843 132.554 340.844 132.554 340.844 132.555C340.844 132.556 340.845 132.556 347.104 129.747C353.364 126.937 353.365 126.937 353.365 126.938C353.365 126.938 353.365 126.938 353.365 126.939C353.365 126.939 353.365 126.939 353.365 126.939C353.365 126.939 353.365 126.937 353.363 126.935C353.361 126.93 353.357 126.92 353.351 126.907C353.339 126.879 353.319 126.834 353.292 126.774C353.238 126.652 353.157 126.464 353.051 126.218C352.84 125.726 352.533 125 352.164 124.091C351.425 122.268 350.446 119.738 349.486 116.903C347.459 110.914 345.913 104.689 346.094 100.774L332.386 100.14ZM242.307 173.249L263.662 187.139L271.145 175.635L249.789 161.745L242.307 173.249ZM328.62 202.61L343.62 222.058L354.487 213.676L339.486 194.229L328.62 202.61ZM385.081 252.886L368.711 232.579L358.027 241.191L374.397 261.499L385.081 252.886ZM414.055 290.131L397.94 270.938L387.43 279.762L403.546 298.955L414.055 290.131ZM443.585 327.249L426.912 308.184L416.581 317.217L433.254 336.283L443.585 327.249Z" fill="#1F1F1F"/>
<path d="M650.484 225.016L601.103 227.326C598.023 227.326 594.847 225.305 591.574 221.262C588.301 217.219 586.665 213.272 586.665 209.422C586.665 205.957 592.151 203.743 603.125 202.78C614.291 201.818 638.644 201.336 676.185 201.336C695.629 201.336 711.608 203.454 724.121 207.689C736.827 211.925 743.18 216.641 743.18 221.839C743.18 225.497 740.004 227.326 733.651 227.326C727.298 227.326 718.442 226.941 707.084 226.171C695.725 225.401 684.848 224.919 674.452 224.727C675.03 226.652 675.318 228.77 675.318 231.08C675.318 238.203 667.81 271.316 652.794 330.418C651.254 336.579 648.944 346.205 645.863 359.296C642.783 372.387 640.473 381.531 638.933 386.729C636.238 396.933 633.831 402.034 631.713 402.034C628.826 402.034 625.553 399.917 621.895 395.681C618.43 391.253 616.697 386.826 616.697 382.398C616.697 377.97 621.895 355.253 632.291 314.247C642.687 273.049 648.751 243.305 650.484 225.016ZM768.926 218.951C768.926 215.101 770.466 211.443 773.547 207.978C776.627 204.513 779.707 202.78 782.787 202.78C786.06 202.78 789.911 206.727 794.338 214.62C798.766 222.321 800.98 228.77 800.98 233.968C800.98 235.893 800.114 237.626 798.381 239.166C796.649 240.706 794.82 241.476 792.895 241.476C788.274 241.476 783.076 238.684 777.301 233.101C771.718 227.518 768.926 222.802 768.926 218.951ZM767.482 259.957C771.14 259.957 774.606 262.171 777.878 266.599C781.151 271.027 782.787 275.359 782.787 279.594C782.787 283.829 779.996 296.535 774.413 317.712C768.83 338.696 761.803 362.28 753.333 388.462C750.06 398.088 745.921 402.901 740.915 402.901C738.22 402.901 735.91 401.842 733.985 399.724C732.059 397.414 731.097 394.911 731.097 392.216C731.097 389.328 731.771 384.9 733.118 378.932C734.658 372.772 736.776 364.686 739.471 354.675C742.359 344.472 744.573 336.194 746.113 329.841C747.846 323.488 749.578 316.365 751.311 308.471C753.044 300.386 754.391 293.936 755.354 289.124C756.509 284.118 757.76 279.113 759.108 274.107C761.803 264.674 764.595 259.957 767.482 259.957ZM847.265 403.189C836.099 403.189 825.607 398.858 815.789 390.195C805.971 381.339 801.061 370.943 801.061 359.007C801.061 346.878 805.104 332.921 813.19 317.135C821.276 301.348 831.672 287.872 844.378 276.706C857.276 265.54 869.79 259.957 881.918 259.957C889.811 259.957 896.742 263.519 902.71 270.642C908.678 277.765 911.662 284.022 911.662 289.412C911.662 290.952 911.181 292.3 910.218 293.455C909.256 294.418 907.812 294.899 905.886 294.899C904.154 294.899 900.977 293.166 896.357 289.701C891.737 286.236 887.597 284.503 883.94 284.503C873.544 284.503 861.415 293.648 847.554 311.937C833.693 330.226 826.762 346.205 826.762 359.873C826.762 365.841 828.591 370.558 832.249 374.023C836.099 377.488 842.164 379.221 850.442 379.221C858.913 379.221 866.613 378.259 873.544 376.333C880.667 374.216 886.154 372.194 890.004 370.269C893.854 368.151 896.838 367.093 898.956 367.093C902.614 367.093 904.443 368.922 904.443 372.579C904.443 378.162 897.705 384.708 884.228 392.216C870.945 399.532 858.624 403.189 847.265 403.189ZM1057.01 275.551C1057.01 277.284 1048.44 286.332 1031.3 302.696C1024.95 308.856 1019.08 316.172 1013.69 324.643C1008.49 332.921 1005.89 340.525 1005.89 347.456C1005.89 354.387 1007.91 360.836 1011.96 366.804C1016.19 372.579 1020.72 377.007 1025.53 380.087C1030.53 382.975 1035.06 385.863 1039.1 388.751C1043.34 391.638 1045.45 394.045 1045.45 395.97C1045.45 400.783 1041.6 403.189 1033.9 403.189C1026.4 403.189 1017.35 398.954 1006.76 390.483C996.363 381.82 989.914 372.194 987.411 361.606C986.448 359.681 985.678 357.852 985.101 356.119C972.01 373.831 962.48 386.152 956.512 393.082C950.737 399.82 946.405 403.189 943.517 403.189C940.63 403.189 937.453 400.975 933.988 396.548C930.523 391.927 928.79 388.173 928.79 385.285C928.79 382.205 931.87 369.788 938.031 348.034C944.384 326.087 950.64 299.808 956.801 269.198C963.154 238.588 966.33 211.251 966.33 187.186C966.33 184.106 966.716 181.988 967.486 180.833C968.448 179.678 970.373 179.101 973.261 179.101C976.149 179.101 979.71 181.988 983.946 187.764C988.181 193.347 990.299 198.834 990.299 204.224C990.299 221.358 986.833 245.326 979.903 276.129C972.972 306.931 964.694 336.194 955.068 363.916C976.823 332.921 995.593 307.894 1011.38 288.835C1027.36 269.583 1037.18 259.957 1040.83 259.957C1044.68 259.957 1048.34 261.786 1051.81 265.444C1055.27 269.102 1057.01 272.471 1057.01 275.551ZM1179.95 307.894C1179.95 318.097 1174.37 326.472 1163.2 333.017C1152.23 339.37 1139.72 342.547 1125.66 342.547C1111.8 342.547 1099.19 341.007 1087.83 337.926C1085.14 346.397 1083.79 354.002 1083.79 360.74C1083.79 367.285 1085.81 372.387 1089.85 376.045C1094.09 379.702 1100.92 381.531 1110.36 381.531C1119.98 381.531 1129.8 379.895 1139.81 376.622C1150.01 373.157 1155.6 371.424 1156.56 371.424C1161.57 371.424 1164.07 373.349 1164.07 377.2C1164.07 382.398 1158.2 388.077 1146.45 394.237C1134.71 400.205 1123.26 403.189 1112.09 403.189C1097.07 403.189 1084.85 398.762 1075.41 389.906C1065.98 380.858 1061.26 369.499 1061.26 355.83C1061.26 342.162 1064.92 327.916 1072.24 313.092C1079.55 298.076 1088.99 285.466 1100.54 275.262C1112.09 265.059 1123.54 259.957 1134.9 259.957C1146.26 259.957 1156.56 265.348 1165.8 276.129C1175.23 286.91 1179.95 297.498 1179.95 307.894ZM1136.35 282.771C1129.22 282.771 1121.81 286.525 1114.11 294.033C1106.41 301.348 1099.86 310.493 1094.47 321.466C1102.17 323.199 1110.93 324.065 1120.75 324.065C1130.57 324.065 1139.14 322.525 1146.45 319.445C1153.77 316.172 1157.43 311.937 1157.43 306.739C1157.43 301.541 1155.02 296.247 1150.21 290.856C1145.59 285.466 1140.97 282.771 1136.35 282.771ZM1227.08 374.312C1227.08 377.97 1229.2 379.799 1233.43 379.799C1240.75 379.799 1249.6 377.777 1260 373.734C1270.59 369.499 1276.46 367.381 1277.61 367.381C1281.08 367.381 1282.81 369.21 1282.81 372.868C1282.81 378.451 1277.04 384.9 1265.48 392.216C1254.13 399.532 1243.73 403.189 1234.3 403.189C1225.06 403.189 1217.36 400.687 1211.2 395.681C1205.03 390.483 1201.95 385.189 1201.95 379.799C1201.95 374.408 1203.11 367.574 1205.42 359.296C1207.73 350.825 1211 339.755 1215.24 326.087C1219.67 312.226 1223.13 300.771 1225.63 291.723C1216.59 293.84 1210.52 294.899 1207.44 294.899C1204.36 294.899 1201.28 293.359 1198.2 290.279C1195.31 287.006 1193.87 283.926 1193.87 281.038C1193.87 276.418 1206.38 271.99 1231.41 267.754C1234.87 251.775 1236.61 237.626 1236.61 225.305C1236.61 219.529 1238.53 216.641 1242.38 216.641C1245.66 216.641 1249.7 218.759 1254.51 222.994C1259.32 227.037 1261.73 231.658 1261.73 236.855C1261.73 242.053 1260.09 251.198 1256.82 264.289C1267.79 263.326 1276.55 262.845 1283.1 262.845C1294.65 262.845 1300.43 265.348 1300.43 270.353C1300.43 273.241 1297.25 275.647 1290.9 277.573C1284.74 279.498 1271.65 282.482 1251.62 286.525C1247.58 301.733 1242.48 319.156 1236.32 338.793C1230.16 358.237 1227.08 370.077 1227.08 374.312ZM1482.63 154.844C1487.21 157.491 1490.58 161.221 1492.74 166.034C1495.15 170.606 1496.35 175.659 1496.35 181.194C1496.35 186.007 1495.39 190.82 1493.46 195.633C1491.54 200.446 1489.01 204.417 1485.88 207.545C1458.45 208.026 1432.58 209.229 1408.27 211.155C1407.07 216.208 1404.54 227.398 1400.69 244.725C1400.21 246.89 1398.65 254.471 1396 267.466C1421.75 265.3 1442.09 262.412 1457.01 258.802C1461.82 261.69 1465.43 265.54 1467.83 270.353C1470.48 274.926 1471.8 279.979 1471.8 285.514C1471.8 290.567 1470.72 295.38 1468.56 299.953C1466.63 304.284 1463.86 307.774 1460.25 310.421C1455.68 310.902 1451.11 311.263 1446.54 311.504C1442.21 311.744 1437.99 311.985 1433.9 312.226L1388.78 315.474C1386.86 327.747 1384.93 342.306 1383.01 359.151C1380.84 377.2 1378.92 389.834 1377.23 397.053C1375.55 404.032 1372.78 407.521 1368.93 407.521C1362.91 407.521 1356.05 405.476 1348.35 401.385C1340.89 397.053 1334.4 392.12 1328.86 386.585C1323.57 380.809 1320.92 376.117 1320.92 372.507C1320.92 368.897 1322.12 360.956 1324.53 348.683C1327.18 336.41 1330.06 323.175 1333.19 308.977C1344.02 262.292 1350.4 230.286 1352.32 212.959L1337.16 214.042C1332.59 211.636 1328.86 208.147 1325.97 203.574C1323.33 198.761 1322 193.587 1322 188.053C1322 178.427 1325.73 169.884 1333.19 162.424C1366.16 161.943 1394.8 161.221 1419.1 160.258C1443.65 159.296 1464.83 157.491 1482.63 154.844ZM1653.4 317.64C1653.64 321.49 1654.48 331.236 1655.92 346.878C1657.61 362.28 1658.45 375.154 1658.45 385.502C1658.45 398.978 1656.89 406.197 1653.76 407.16C1652.8 407.401 1651.23 407.521 1649.07 407.521C1643.77 407.521 1637.15 406.318 1629.21 403.911C1621.51 401.264 1614.53 398.016 1608.28 394.165C1602.26 390.315 1598.77 386.585 1597.81 382.975C1596.85 379.366 1596.36 364.205 1596.36 337.493C1570.37 340.622 1553.29 342.547 1545.11 343.269C1538.61 362.28 1531.15 383.096 1522.73 405.716C1516.23 407.16 1510.21 407.882 1504.68 407.882C1495.05 407.882 1486.87 405.596 1480.13 401.024C1473.64 396.211 1469.3 388.991 1467.14 379.366L1474.36 363.122C1500.83 304.164 1523.69 254.711 1542.94 214.764C1562.43 174.817 1575.07 154.844 1580.84 154.844C1585.41 154.844 1592.03 156.528 1600.7 159.897C1609.6 163.266 1617.54 167.357 1624.52 172.17C1631.74 176.983 1635.83 181.315 1636.79 185.165C1638.48 191.903 1640.76 205.981 1643.65 227.398C1646.54 248.816 1648.82 269.511 1650.51 289.485L1653.4 317.64ZM1595.28 211.155C1584.69 236.182 1574.22 263.014 1563.88 291.65C1574.95 290.928 1585.9 289.846 1596.73 288.402C1596.73 255.193 1596.24 229.444 1595.28 211.155ZM1853.25 154.844C1857.82 154.844 1863.96 156.889 1871.66 160.98C1879.6 165.071 1886.46 169.884 1892.24 175.419C1898.25 180.954 1901.26 185.767 1901.26 189.857C1901.26 192.023 1898.97 201.649 1894.4 218.735C1885.98 249.056 1879.72 275.527 1875.63 298.148C1873.23 312.346 1870.7 330.996 1868.05 354.098C1865.64 373.831 1863.48 387.668 1861.55 395.609C1859.87 403.55 1857.1 407.521 1853.25 407.521C1846.27 407.521 1838.09 404.633 1828.71 398.858C1819.56 392.842 1811.62 385.502 1804.88 376.839C1801.27 372.026 1796.22 362.641 1789.72 348.683C1783.22 334.726 1776.85 319.084 1770.59 301.757C1764.57 284.19 1760 267.826 1756.87 252.666L1754.35 298.148C1751.94 312.346 1749.41 330.996 1746.77 354.098C1744.36 373.831 1742.19 387.668 1740.27 395.609C1738.58 403.55 1735.82 407.521 1731.97 407.521C1726.43 407.521 1719.81 405.596 1712.11 401.746C1704.65 397.655 1698.04 392.842 1692.26 387.307C1686.73 381.772 1683.96 377.2 1683.96 373.59C1683.72 369.74 1684.8 361.678 1687.21 349.405C1689.85 336.892 1691.54 328.83 1692.26 325.22C1693.22 320.407 1695.03 311.624 1697.67 298.87C1700.32 285.875 1702.49 273.843 1704.17 262.773L1707.06 245.807C1711.63 218.855 1715.84 196.957 1719.69 180.111C1723.78 163.266 1727.88 154.844 1731.97 154.844C1736.06 154.844 1741.59 156.648 1748.57 160.258C1755.79 163.627 1762.29 167.838 1768.06 172.892C1774.08 177.946 1777.93 182.758 1779.61 187.331C1790.92 217.652 1804.76 258.562 1821.13 310.06L1825.46 262.773L1828.34 245.807C1832.92 218.855 1837.13 196.957 1840.98 180.111C1845.07 163.266 1849.16 154.844 1853.25 154.844Z" fill="#1F1F1F"/>
</svg>
